<svg xmlns="http://www.w3.org/2000/svg" xmlns:xlink="http://www.w3.org/1999/xlink" width="900" height="650" viewBox="0 0 900 650">
  <defs>
    <clipPath id="clip-path">
      <rect id="Rectangle_5" data-name="Rectangle 5" width="676" height="237" rx="5" transform="translate(253 523)" fill="#fff"/>
    </clipPath>
  </defs>
  <g id="Group_6" data-name="Group 6" transform="translate(-138 -224)">
    <path id="Path_1" data-name="Path 1" d="M0,0H900V650H0Z" transform="translate(138 224)" fill="#eceff7"/>
    <g id="Group_1" data-name="Group 1">
      <rect id="Rectangle_2" data-name="Rectangle 2" width="870" height="620" rx="10" transform="translate(153 239)" fill="#fff"/>
      <circle id="Ellipse_1" data-name="Ellipse 1" cx="7.5" cy="7.5" r="7.5" transform="translate(185 260)" fill="#de6628"/>
      <circle id="Ellipse_2" data-name="Ellipse 2" cx="7.5" cy="7.5" r="7.5" transform="translate(208 260)" fill="#f8dc52"/>
      <circle id="Ellipse_3" data-name="Ellipse 3" cx="7.5" cy="7.5" r="7.5" transform="translate(231 260)" fill="#97ef95"/>
      <rect id="Rectangle_3" data-name="Rectangle 3" width="809" height="534" rx="10" transform="translate(185 293)" fill="#f6f8fe"/>
      <g id="Group_2" data-name="Group 2" transform="translate(-63)">
        <g id="Group_4" data-name="Group 4">
          <rect id="Rectangle_4" data-name="Rectangle 4" width="328" height="50" rx="5" transform="translate(316 386)" fill="#fff"/>
          <text id="Name" transform="translate(334 418)" fill="#a7a7a7" font-size="20" font-family="HelveticaNeue, Helvetica Neue"><tspan x="0" y="0">Name</tspan></text>
        </g>
      </g>
      <g id="Group_5" data-name="Group 5">
        <rect id="Rectangle_4-2" data-name="Rectangle 4" width="328" height="50" rx="5" transform="translate(601 386)" fill="#fff"/>
        <text id="Select_Type" data-name="Select Type" transform="translate(624 418)" fill="#a7a7a7" font-size="20" font-family="HelveticaNeue, Helvetica Neue"><tspan x="0" y="0">Select Type</tspan></text>
        <path id="Polygon_1" data-name="Polygon 1" d="M6.5,0,13,10H0Z" transform="translate(914 416) rotate(180)" fill="#707070"/>
      </g>
      <g id="Group_3" data-name="Group 3" transform="translate(-63 71)">
        <rect id="Rectangle_4-3" data-name="Rectangle 4" width="328" height="50" rx="5" transform="translate(316 386)" fill="#fff"/>
        <text id="Capacity" transform="translate(334 418)" fill="#a7a7a7" font-size="20" font-family="HelveticaNeue, Helvetica Neue"><tspan x="0" y="0">Capacity</tspan></text>
      </g>
    </g>
    <g id="Mask_Group_1" data-name="Mask Group 1" clip-path="url(#clip-path)">
      <g id="Map" transform="translate(933.758 513) rotate(90)">
        <path id="Intersection_2" data-name="Intersection 2" d="M244.939,680.758l-9.975-28.391-18.494,5.064-2.609,23.327h-4.144l6.523-58.392-11.281,1.381-20.718,56.934h-8.671l10.9-30L161.6,644.848l-13.582,34.758,2.686,1.151h-7.521l6.753-17.263L122.93,653.135A304.362,304.362,0,0,1,109.5,680.757H99.987C112.264,659.58,121.625,635.64,128,616.15L69.829,611.7l11.51,69.058H73.052l-3.683-22.022-33.38,5.679-.307,4.451,6.982,11.893H37.908l-2.762-4.68-.307,4.68H30.771L31.922,665.1l-24.4,4.143.844,11.433H.154L0,678.551V547.445l7.29-24.907L0,521.919v-8.162l9.592.8,9.515-32.535L0,472.81V457.8l5.065,2.431L22.714,398.08,6.063,388.719,0,407.344V394.175l2.226-6.837L0,386.965v-4.111l3.53.57L15.424,346.9,0,340.617v-4.441l16.652,6.812,21.333-65.374L0,281.23v-8.262l57.245-5.407L16.269,220.524c-2.8.267-10.637,1.055-16.269,1.559v-4l14.964-1.47-1.535-22.942L0,195.382V181.643l11.894-1.478L9.132,162.747c-3.345.525-6.481,1.021-9.132,1.432v-4.2l8.518-1.3L5.679,141.108,0,141.853v-4.117l4.988-.695L1.151,112.948,0,113.06V104.9l32.076-3.08L27.011,65.758C18.47,67.524,9.38,68.872,0,69.885V61.694q2.357-.253,4.681-.539L2.3,28.7,0,28.419V20.137l1.612.2L.154.076H8.365L12.816,60c4.757-.767,9.362-1.535,13.812-2.532L30.771.076h4.068l-4.068,56.4C42.9,53.558,53.484,49.645,61.619,44.35c.537-.384,1.151-.844,1.765-1.227L37.985.076h4.757L53.562,18.415,74.05,6.215l-1-6.139H81.34l3.684,22.175A169.807,169.807,0,0,0,99.987.076H109.5q-1.726,3.223-3.684,6.446L136.59,17.187,143.265.076h7.52l21.486,8.978,3.3-8.978h8.671l-.691,2,25.093,7.75L209.718.076h4.144l-1.3,10.972L232.2,17.187c2.686-.767,9.439-2.686,17.036-4.757L244.862,0h4.3c1.612,4.527,2.993,8.593,3.99,11.356,6.292-1.765,12.661-3.53,17.419-4.834L267.422.076h15.194L284,2.762,293.282.076h29.237C308.4,4.143,295.354,7.98,287.6,10.205l13.045,26.626,30.463-5.141L327.2.076h8.211l3.837,30.309L370.4,25.091l4.6-25.014h7.75V32.661l-2.072,11,2.072.61v4.205l-2.533-.748,2.533,5.471V72.641l-5.219-11.256L366.1,123.69a30.238,30.238,0,0,1,8.9,9.285l7.75-4.663v4.833l-5.832,3.512a30.8,30.8,0,0,1,2.455,11.894c0,.614-.076,1.151-.076,1.765l3.453.647v13.868l-7.444-1.395a29.82,29.82,0,0,1-20.642,14.426l-11.433,35.68,39.519,7.926v4.187l-18.187-3.672c-.46,2.916-1.382,8.517-2.378,14.579l20.565,2.719V243.4l-21.18-2.851c-.92,5.755-1.842,11.432-2.455,15.116l23.635,4.464v8.3l-25.169-4.7-9.363,42.816,34.532-32.263v5.661l-35.145,32.741,14.043,17.187,21.1-12.527v9.443l-15.885,9.452,11.817,14.349,4.068-2.405v4.8l-1.535.908,1.535,1.877v6.411l-19.414-23.788-40.977,24.324,60.391,10.856v13.854l-15.885-2.841L359.2,430.231l23.558,5.607v4.2l-24.249-5.813-4.528,27.086c10.129,1.911,19.941,3.822,28.777,5.514v8.3l-19.184-3.681-6.139,42.739,18.8,3.837,6.523-27.177v17.71L380.3,518.778l2.456.5v8.356l-26.4-5.323L352.752,547.4l30,5.919v4.09l-30.617-6.018-4.374,30.692,34.992,5.995v8.311l-36.143-6.172-4.3,30.155,40.44,5.528v8.179l-17.573-2.427-4.451,29.388,18.8-5.447,3.223-17.293v42.384h-7.9l2.993-16.113c-9.823,2.915-26.244,7.673-42.9,12.507l.46,3.606H327.2l-.153-1.3c-1.535.46-2.993.844-4.527,1.3H293.282l33.61-9.668,2.993-21.178-54.175,16.8,6.906,14.118H267.422l-16.114-32.841-12.431,3.377c1.765,5.064,6.522,18.645,10.359,29.465ZM335.41,668.48l20.949-6.062,4.681-31.153L341.089,628.5ZM5.065,636.407l2.149,28.774,61.464-10.512-4.144-24.708Zm261.667,11.97,7.136,14.5,20.489-6.446-3.837-14.885Zm-142.19.921,26.934,10.281,6.139-15.653L129.3,637.251C127.842,641.241,126.229,645.231,124.542,649.3Zm169.891-8.825,3.837,14.809,32.229-9.975,2.226-15.807Zm-74.049-18.645-3.453,31.229,32.535-8.9L237.419,619.6Zm-54.4,15.729,23.327,5.448,7.366-20.41-14.733-6.062Zm86.4-18.492,10.742,21.868,70.9-20.257,2.149-14.886-71.825-10.359ZM132.138,629.578l29.544,6.9,17.189-22.635L162.3,585.611l-16.881-.46A450.48,450.48,0,0,1,132.138,629.578Zm-129.3-23.71L4.451,628.2l58.779-6.368-3.453-20.794Zm203.732,13.658,29.006-3.76-9.668-19.643a29.674,29.674,0,0,1-9.439,1.535,15.32,15.32,0,0,1-1.918-.077Zm-22.023-6.369,13.582,5.6,8.365-22.942a27.393,27.393,0,0,1-6.37-3.146ZM237.5,588.834l12.585,25.628,19.03-37.444-23.327-3.99A29.553,29.553,0,0,1,237.5,588.834ZM69.139,607.479l60.161,4.6c3.606-11.433,6.215-20.948,7.75-27.163l-71.978-2.071ZM181.633,610.4l15.347-20.18a27.23,27.23,0,0,1-3.607-3.683l-26.243-.767ZM2.61,601.878l56.554-4.834L56.784,582.7,1.075,581.084Zm304.1-4.45,30,4.3,1.842-12.891L309.7,584Zm-40.44-5.832,36.373,5.218,3.07-13.582-32.459-5.447ZM200.279,567.81a16.191,16.191,0,1,0,16.191-16.191A16.195,16.195,0,0,0,200.279,567.81Zm93.464,5.141,45.964,7.826,2.3-15.883-45.35-8.518Zm-126.691-.768,20.1.537a20.92,20.92,0,0,1-.384-4.911,32.349,32.349,0,0,1,.384-4.757l-17.035-8.21Zm-34.531-18.645L130.3,571.109l32.535.92L166.208,553,140.426,540.57ZM242.79,554a28.715,28.715,0,0,1,3.3,10.819l39.6,6.752,9.132-51.793ZM65.225,569.267l61,1.765,2.072-16.574L70.443,541.951ZM2.61,567.5l54.328,1.535,2-10.436-52.1-5.448ZM297.35,552.31l45.273,8.594,1.688-12.047-42.434-21.944ZM35.605,552l24.1,2.532,9.284-48.495-20.028-9.668ZM8.058,549.164l23.481,2.455L45.2,494.608,26.551,485.63Zm99.525-3.376,21.946,4.757,7.137-11.816-20.1-9.668Zm129.068.153a31.738,31.738,0,0,1,3.99,4.527l55.173-36.216.691-3.99-45.427-9.208Zm-83.1-14.118L192.3,550.468a30.033,30.033,0,0,1,9.746-8.67l-6.37-25.4Zm-82.336,6.062,32.229,6.982,9.439-17.647-36.3-17.495Zm231.433-15.193,42.282,21.868L348.3,520.7l-43.739-8.824ZM200.816,481.026l14.426,57.012h1.228a28.561,28.561,0,0,1,8.134,1.151l16.037-50.259-7.29-18.031ZM126.46,518.7l22.023,10.666,28.086-10.282-5.295-19.029Zm40.593-48.878,13.276,47.727,14.349-5.217-12.2-48.417ZM87.939,500.132l33.61,16.191,15.73-6.522-13.352-23.4Zm218,3.683,43.509,8.824,6.139-42.739-42.2-8.134ZM127.764,484.863l13.275,23.326,29.083-12.123-6.906-24.784Zm125.845,8.364,44.353,8.978,7.444-41.972-38.828-7.443ZM58.856,486.091l18.954,9.131,39.595-15.116L71.441,448.57Zm162.6-55.554,21.179,52.331,24.171-75.426Zm-208.873,33.3L51.49,482.561l12.737-38.135L23.4,425.7ZM101.06,429.31l-4.834,31.306,25.783,17.726,15.654-5.985,12.354-63c-10.973-3.837-23.711-8.287-34.837-12.2ZM184.7,416.957,199.9,477.113l32-9.975-23.1-57.012ZM142.19,470.591l38.368-14.656L170.583,416.5c-4.144-1.459-9.975-3.53-16.652-5.832Zm176.645-16.113c10.13,1.918,20.718,3.989,31.078,5.984L362.8,383.808l-6.6-1.227Zm-246.013-9.9,19.721,13.5,4.22-27.547-18.57-2.225Zm196.288.383c9.132,1.765,26.167,4.988,45.581,8.747l2.839-5.448L279.163,413.5Zm32.152-16.957,18.11,16.5,32.535-62.612-20.718-3.76ZM24.479,421.714l41.053,18.8,4.681-14.042L28.162,408.9Zm187.847-13.735,7.6,18.8,47.806-24.324-42.9-10.972Zm-132.675,16.5,18.263,2.148,13.429-30.769c-8.517-2.993-15.731-5.524-19.874-6.983Zm200.893-15.269,17.648,16.036,28.7-47.88-34.224-6.138Zm-229.976.23,22.253,9.285,10.819-32.38-22.1-6.83Zm133.059,3.53,25.092-7.136,11.741-15.5-45.427-11.587Zm-53.946-15.04,39.6,13.889-9.362-37.061L137.357,368ZM30.464,401l16.422,6.829,22.1-60.157-21.563-6.446ZM92.7,384.959l33.15,11.587,7.6-29.772L101.9,357.413ZM256.449,391.1l14.35,3.682,7.29-22.635-15.117-5.064ZM42.435,277.152,7.367,384.73l16.5,9.284,33.61-118.242ZM230.9,384.652l21.64,5.524,6.6-24.324-18.34-6.138Zm-25.706-50.412-15.04,8.67,9.515,33.608,23.251,5.909,20.565-51.487ZM63.077,375.6c4.6,1.458,15.885,4.988,21.947,6.829l9.131-27.316L72.9,348.819Zm105.971-20.487,3.684,14.656,22.253,5.678-8.518-30.385Zm73.205.767,37.063,12.354,11.894-37.061L257.447,317.82ZM121.7,354.8l35.989,10.665-8.978-35.45Zm175.186,3.376,13.2,2.379,25.476-15.117c1.228-5.831,3.914-17.955,6.83-31.383l-29.16-6.906ZM81.11,294.8,70.674,339.612,117.1,353.423l30.54-27.854-8.211-32.457Zm79.267,25.858,7.673,30.309,33.457-19.26c-3.99-5.372-15.654-20.871-19.261-25.705ZM340.4,342.451l17.726-10.513-12.2-14.885ZM49.648,333.4l17.112,5.064,6.676-28.7-15.654-4.988Zm135.974-29.772L205.5,330.1l39.595-3.377.767-1.918L205.344,290.35Zm73.36,10.359,33.533,13.274,7.673-24.017L267.96,291.5Zm-27.241-6.523,15.731,13.351,13.121-32.994-9.9-7.213Zm-75.277-2.149,2.839,11.127L179.714,302.7l-7.136-8.977Zm158-2,28.776,6.752c4.144-18.722,8.517-38.749,10.282-47.036l-24.709-4.6ZM66.223,274.927l-7.366,25.858,15.5,4.987,7.52-32.3ZM195.828,277l32.766,27.776,18.8-26.626-26.551-19.182Zm-19.95,14.273c2.3,2.915,5.525,6.982,7.213,9.13l18.954-12.814-9.669-8.21Zm93.54-3.53,32,11.587,4.911-15.424c-6.446-3.222-17.649-9.054-29.16-15.652Zm-128.07-42.816,13.044,51.793,36.143-26.011-9.976-33.3Zm-55.173,28.16L82.03,290.734l56.324-1.688-5.141-20.411Zm138.2-16.651,37.83,27.393,7.828-19.72c-9.592-5.679-18.8-11.74-25.093-17.188a38.524,38.524,0,0,1-3.069-3.069Zm23.865-17.647a23.559,23.559,0,0,0,2,1.918c14.2,12.2,45.043,28.467,58.626,35.373l9.055-28.237-36.834-37.215Zm-188-26.012,6.37,53.942,19.03-1.842-7.213-54.786Zm129.99,28.7,7.289,24.247,18.416-13.2-7.6-19.72ZM89.7,264.491l41.514-3.913-2-7.98-43.048-15.04ZM17.5,193.208l1.611,24.4,38.752,44.5-8.671-72.818Zm313.847,57.318,23.711,4.45,5.525-33.762-18.646-3.76ZM198.9,196.891l20.488,53.1,17.573-12.661c-10.667-16.19-19.338-43.046-24.019-59.466ZM82.491,209.476l3.07,23.556L128,247.841l-10.974-43.507Zm42.434-29.465,15.347,61,39.059-7.6-17.5-57.932ZM287.3,205.255l33.456,33.839,14.427-45.2-21.716-11.126Zm-104.13,12.891L189,237.482l17.879-8.593-10.9-28.16ZM230.436,205.1c3.76,10.052,8.134,19.95,12.892,27.24l12.815-11.049-11.357-21.715Zm18.187-7.135,10.742,20.564,15.807-13.658-13.889-11.817Zm-78.577-23.4,11.664,38.749,29.85-40.513c-.307-1.152-.614-2.226-.844-3.223ZM57.321,188.3l2.455,20.41,56.247-8.286L111.266,181.7Zm214.551-26.242-7.9,27.93,14.35,12.2,45.351-38.9a29.817,29.817,0,0,1-2.993-7.213Zm-52.947,6.522c2,7.519,5.6,19.95,10.13,32.611l31-11.97,7.521-26.626Zm97.838,11.356,19.644,10.052,4.221-13.045a30.392,30.392,0,0,1-11.971-7.213ZM13.2,162.132l2.762,17.495,30.925-3.76-4.3-18.262C36.527,158.526,24.172,160.445,13.2,162.132ZM54.943,174.87l55.633-6.83-2.149-8.133L50.8,157.221Zm68.677-8.441,34.07-4.144-20.565-32.994Zm209.718-17.955a16.191,16.191,0,1,0,16.191-16.19A16.194,16.194,0,0,0,333.338,148.474ZM139.812,125.915l22.33,35.834,13.122-1.612.076-39.746ZM117.1,160.521l20.718-56.781L98.835,90.006Zm62.386-40.744-.077,39.9,43.509-5.295-4.6-40.667ZM9.746,140.571l2.762,17.495,29.16-4.45-3.913-16.8ZM67.3,106.655l8.44,47.651,31.692,1.458-13.352-51.64Zm-27.625,2.61,10.206,43.813,21.64,1-8.364-47.036Zm185.316,27.623,1.919,16.958,24.478-2.993-2.609-16.881Zm28.086-28.544,6.445,41.512,27.779-3.377-6.523-42.432Zm31.768-4.911,6.6,42.509,29.005-3.53a29.837,29.837,0,0,1,9.055-15.883L315.842,98.6ZM5.219,112.565,9.055,136.5l27.7-3.683-5.295-22.789Zm217.084.614,2.225,19.643,23.634-2.838-3.145-20.334Zm80.265-72.511,38.9,79.187a1.8,1.8,0,0,0,.615-.153L331.65,35.756Zm37.14-6.291,10.436,84.4c1,.076,1.918.153,2.916.23l16.5-89.622Zm-198.284,83.1,34.915-5.448L190.917,59.85,165.9,50.412Zm39.365-6.139,21.256-3.3,9.9-40.207-17.189-6.522Zm25.553-3.913,31.922-4.988-3.3-25.781L215.7,69.364ZM33.534,83.407l2.532,18.031,55.864-5.371-6.062-23.1Zm210.791,1.458,2.071,16.267,65.609-10.205-8.441-17.264ZM119.17,92.844,139.2,99.9l8.517-23.4-21.486-8.9ZM97.607,85.171l17.726,6.292,7.136-25.475L89.014,52.023ZM236.651,24.477,243.788,80.8l26.857-5.065c-3.146-9.131-14.81-43.966-18.723-55.477ZM66.069,51.256C56.784,57.241,44.737,61.692,31,64.991l2,14.425L84.87,69.058,77.887,42.048A89.1,89.1,0,0,1,66.069,51.256ZM255.912,19.182l18.8,55.861L301.723,69.9,274.328,14.041ZM127.38,63.61,149.1,72.664l13.736-37.752-25.016-8.67Zm68.678-6.139L234.426,72.05,231.28,47.189l-26.167-9.514Zm-111.5-22.1,3.069,11.816,35.912,14.885L133.98,24.937,101.367,13.658A158.663,158.663,0,0,1,84.563,35.373Zm82.72,11.048L192.3,55.937,202.121,34.3l4.911-16.42-26.32-8.134Zm39.288-12.583,24.171,8.747-2.3-18.032-17.5-5.448ZM55.633,21.944l11.127,18.8A102.7,102.7,0,0,0,78.117,30.308l-3.3-19.8Zm84.793-3.453,25.246,8.747L170.89,12.89,146.565,2.762ZM81.34,680.757ZM42.665,680.757ZM335.41,680.681ZM8.365,680.681Z" transform="translate(1)" fill="#fff"/>
        <rect id="Rectangle_586" data-name="Rectangle 586" width="382.756" height="680.758" fill="rgba(207,207,207,0.14)"/>
      </g>
    </g>
    <g id="Large_Pin" data-name="Large Pin" transform="translate(375 191)">
      <rect id="Rectangle_305" data-name="Rectangle 305" width="32" height="32" transform="translate(200 435)" fill="none"/>
      <path id="Path_114" data-name="Path 114" d="M13.134,18.99a5.573,5.573,0,0,0,5.583-5.583,5.744,5.744,0,0,0-5.583-5.782,5.573,5.573,0,0,0-5.583,5.583A5.884,5.884,0,0,0,13.134,18.99ZM3.763,3.838A13.252,13.252,0,0,1,22.5,22.579L13.134,31.95,3.763,22.579A13.614,13.614,0,0,1,3.763,3.838Z" transform="translate(201.975 435.05)" fill="#de7047" fill-rule="evenodd"/>
    </g>
  </g>
</svg>
