<svg xmlns="http://www.w3.org/2000/svg" xmlns:xlink="http://www.w3.org/1999/xlink" width="421.301" height="474.886" viewBox="0 0 421.301 474.886">
  <defs>
    <linearGradient id="linear-gradient" x1="0.5" y1="1" x2="0.5" gradientUnits="objectBoundingBox">
      <stop offset="0" stop-color="#fff"/>
      <stop offset="1" stop-color="#1abcbd"/>
    </linearGradient>
  </defs>
  <g id="OBJECTS" transform="translate(-39.349 -25.114)">
    <g id="Group_49" data-name="Group 49">
      <g id="Group_19" data-name="Group 19">
        <g id="Group_9" data-name="Group 9">
          <circle id="Ellipse_4" data-name="Ellipse 4" cx="188" cy="188" r="188" transform="translate(64.846 25.114)" opacity="0.32" fill="url(#linear-gradient)"/>
          <g id="Group_8" data-name="Group 8">
            <path id="Path_231" data-name="Path 231" d="M433.139,265.871,330.644,197.4l-81.875,60.59-74.689-21.58-91.55,30.593,193.508-1.135-3.135-.906Z" fill="#1f2b54" opacity="0.17"/>
            <path id="Path_232" data-name="Path 232" d="M248.769,257.993l81.875-60.59L352.2,210.328l-27.78,1,12.453,6Z" fill="#fffbce" opacity="0.2" style="mix-blend-mode: overlay;isolation: isolate"/>
          </g>
        </g>
        <g id="Group_10" data-name="Group 10">
          <path id="Path_233" data-name="Path 233" d="M418.458,300.328c4.814-11.482,12.237-23.008,15.573-35.51l-362.1.892c3.336,12.5,10.484,23.136,15.3,34.618Z" fill="#00a07b"/>
          <rect id="Rectangle_848" data-name="Rectangle 848" width="331.724" height="4.948" transform="translate(86.651 297.328)" fill="#af764f"/>
        </g>
        <g id="Group_18" data-name="Group 18">
          <path id="Path_234" data-name="Path 234" d="M86.148,299.309a188.048,188.048,0,0,0,333.395,0Z" fill="#1abcbd"/>
          <path id="Path_235" data-name="Path 235" d="M373.939,326.415c-6.42-1.628-13.009-3.3-19.653-3.616a83.912,83.912,0,0,0-17.885,1.547c-11.846,2.018-23.379,5.553-35.243,7.488-11.743,1.915-24.357,2.338-35.865-1.078-5.814-1.726-11.392-4.584-17.334-5.8-6.059-1.242-12.277-.02-18.283.957-26.075,4.243-51.486,10.466-77.622,2.884-14.981-4.345-35.132-12.131-49.952-4.139a187.982,187.982,0,0,0,296.5,6.4C390.336,330.542,382.209,328.511,373.939,326.415Z" fill="#1abcbd" opacity="0.43" style="mix-blend-mode: multiply;isolation: isolate"/>
          <path id="Path_236" data-name="Path 236" d="M331.553,361.491C313.1,359.208,296.7,363.8,279.4,369.847c-9.188,3.212-18.413,6.647-28.013,8.419-9.094,1.679-18.576,1.126-27.619-.612-15.977-3.071-31.137-8.773-47.382-10.675-9.114-1.067-19.623-1.67-28.757,1.143a187.97,187.97,0,0,0,211.3-.588A154.192,154.192,0,0,0,331.553,361.491Z" fill="#1abcbd" opacity="0.43" style="mix-blend-mode: multiply;isolation: isolate"/>
          <g id="Group_17" data-name="Group 17">
            <g id="Group_11" data-name="Group 11">
              <rect id="Rectangle_849" data-name="Rectangle 849" width="7.239" height="1.512" rx="0.586" transform="translate(225.918 332.531)" fill="#fffbce" style="mix-blend-mode: overlay;isolation: isolate"/>
              <rect id="Rectangle_850" data-name="Rectangle 850" width="7.239" height="1.512" rx="0.586" transform="translate(220.959 337.52)" fill="#fffbce" style="mix-blend-mode: overlay;isolation: isolate"/>
              <rect id="Rectangle_851" data-name="Rectangle 851" width="7.239" height="1.512" rx="0.586" transform="translate(235.972 339.636)" fill="#fffbce" style="mix-blend-mode: overlay;isolation: isolate"/>
              <rect id="Rectangle_852" data-name="Rectangle 852" width="7.239" height="1.512" rx="0.586" transform="translate(230.476 335.857)" fill="#fffbce" style="mix-blend-mode: overlay;isolation: isolate"/>
              <rect id="Rectangle_853" data-name="Rectangle 853" width="7.239" height="1.512" rx="0.586" transform="translate(239.055 332.229)" fill="#fffbce" style="mix-blend-mode: overlay;isolation: isolate"/>
            </g>
            <g id="Group_12" data-name="Group 12">
              <rect id="Rectangle_854" data-name="Rectangle 854" width="9.046" height="1.512" rx="0.655" transform="translate(247.224 361.963)" fill="#fffbce" style="mix-blend-mode: overlay;isolation: isolate"/>
              <rect id="Rectangle_855" data-name="Rectangle 855" width="9.046" height="1.512" rx="0.655" transform="translate(241.025 366.951)" fill="#fffbce" style="mix-blend-mode: overlay;isolation: isolate"/>
              <rect id="Rectangle_856" data-name="Rectangle 856" width="9.046" height="1.512" rx="0.655" transform="translate(259.788 369.067)" fill="#fffbce" style="mix-blend-mode: overlay;isolation: isolate"/>
              <rect id="Rectangle_857" data-name="Rectangle 857" width="9.046" height="1.512" rx="0.655" transform="translate(252.919 365.288)" fill="#fffbce" style="mix-blend-mode: overlay;isolation: isolate"/>
              <rect id="Rectangle_858" data-name="Rectangle 858" width="9.046" height="1.512" rx="0.655" transform="translate(263.641 361.66)" fill="#fffbce" style="mix-blend-mode: overlay;isolation: isolate"/>
            </g>
            <g id="Group_13" data-name="Group 13">
              <rect id="Rectangle_859" data-name="Rectangle 859" width="9.046" height="1.512" rx="0.655" transform="translate(207.802 306.456)" fill="#fffbce" style="mix-blend-mode: overlay;isolation: isolate"/>
              <rect id="Rectangle_860" data-name="Rectangle 860" width="9.046" height="1.512" rx="0.655" transform="translate(201.604 311.444)" fill="#fffbce" style="mix-blend-mode: overlay;isolation: isolate"/>
              <rect id="Rectangle_861" data-name="Rectangle 861" width="9.046" height="1.512" rx="0.655" transform="translate(220.366 313.56)" fill="#fffbce" style="mix-blend-mode: overlay;isolation: isolate"/>
              <rect id="Rectangle_862" data-name="Rectangle 862" width="9.046" height="1.512" rx="0.655" transform="translate(213.498 309.781)" fill="#fffbce" style="mix-blend-mode: overlay;isolation: isolate"/>
              <rect id="Rectangle_863" data-name="Rectangle 863" width="9.046" height="1.512" rx="0.655" transform="translate(224.219 306.153)" fill="#fffbce" style="mix-blend-mode: overlay;isolation: isolate"/>
            </g>
            <g id="Group_14" data-name="Group 14">
              <rect id="Rectangle_864" data-name="Rectangle 864" width="9.046" height="1.512" rx="0.655" transform="translate(261.047 315.586)" fill="#fffbce" style="mix-blend-mode: overlay;isolation: isolate"/>
              <rect id="Rectangle_865" data-name="Rectangle 865" width="9.046" height="1.512" rx="0.655" transform="translate(254.849 320.574)" fill="#fffbce" style="mix-blend-mode: overlay;isolation: isolate"/>
              <rect id="Rectangle_866" data-name="Rectangle 866" width="9.046" height="1.512" rx="0.655" transform="translate(273.611 322.69)" fill="#fffbce" style="mix-blend-mode: overlay;isolation: isolate"/>
              <rect id="Rectangle_867" data-name="Rectangle 867" width="9.046" height="1.512" rx="0.655" transform="translate(266.743 318.911)" fill="#fffbce" style="mix-blend-mode: overlay;isolation: isolate"/>
              <rect id="Rectangle_868" data-name="Rectangle 868" width="9.046" height="1.512" rx="0.655" transform="translate(277.464 315.283)" fill="#fffbce" style="mix-blend-mode: overlay;isolation: isolate"/>
            </g>
            <g id="Group_15" data-name="Group 15">
              <path id="Path_237" data-name="Path 237" d="M379.254,306.736h-6.283a.372.372,0,0,1-.371-.371h0a.372.372,0,0,1,.371-.372h6.283a.372.372,0,0,1,.371.372h0A.372.372,0,0,1,379.254,306.736Z" fill="#fffbce" style="mix-blend-mode: overlay;isolation: isolate"/>
              <path id="Path_238" data-name="Path 238" d="M374.44,309.188h-6.283a.372.372,0,0,1-.371-.371h0a.372.372,0,0,1,.371-.372h6.283a.372.372,0,0,1,.371.372h0A.372.372,0,0,1,374.44,309.188Z" fill="#fffbce" style="mix-blend-mode: overlay;isolation: isolate"/>
              <path id="Path_239" data-name="Path 239" d="M389.012,310.228h-6.283a.372.372,0,0,1-.371-.371h0a.372.372,0,0,1,.371-.372h6.283a.372.372,0,0,1,.371.372h0A.372.372,0,0,1,389.012,310.228Z" fill="#fffbce" style="mix-blend-mode: overlay;isolation: isolate"/>
              <path id="Path_240" data-name="Path 240" d="M383.677,308.371h-6.282a.373.373,0,0,1-.372-.372h0a.372.372,0,0,1,.372-.371h6.282a.372.372,0,0,1,.372.371h0A.373.373,0,0,1,383.677,308.371Z" fill="#fffbce" style="mix-blend-mode: overlay;isolation: isolate"/>
              <path id="Path_241" data-name="Path 241" d="M392,306.587h-6.283a.372.372,0,0,1-.371-.371h0a.372.372,0,0,1,.371-.371H392a.373.373,0,0,1,.372.371h0A.373.373,0,0,1,392,306.587Z" fill="#fffbce" style="mix-blend-mode: overlay;isolation: isolate"/>
            </g>
            <g id="Group_16" data-name="Group 16">
              <path id="Path_242" data-name="Path 242" d="M113.479,307.628H107.2a.372.372,0,0,1-.371-.372h0a.372.372,0,0,1,.371-.371h6.283a.373.373,0,0,1,.372.371h0A.373.373,0,0,1,113.479,307.628Z" fill="#fffbce" style="mix-blend-mode: overlay;isolation: isolate"/>
              <path id="Path_243" data-name="Path 243" d="M108.665,310.08h-6.283a.372.372,0,0,1-.371-.372h0a.372.372,0,0,1,.371-.371h6.283a.373.373,0,0,1,.372.371h0A.373.373,0,0,1,108.665,310.08Z" fill="#fffbce" style="mix-blend-mode: overlay;isolation: isolate"/>
              <path id="Path_244" data-name="Path 244" d="M123.237,311.12h-6.283a.372.372,0,0,1-.371-.372h0a.372.372,0,0,1,.371-.371h6.283a.372.372,0,0,1,.371.371h0A.372.372,0,0,1,123.237,311.12Z" fill="#fffbce" style="mix-blend-mode: overlay;isolation: isolate"/>
              <path id="Path_245" data-name="Path 245" d="M117.9,309.263H111.62a.374.374,0,0,1-.372-.372h0a.373.373,0,0,1,.372-.371H117.9a.372.372,0,0,1,.371.371h0A.373.373,0,0,1,117.9,309.263Z" fill="#fffbce" style="mix-blend-mode: overlay;isolation: isolate"/>
              <path id="Path_246" data-name="Path 246" d="M126.229,307.479h-6.282a.372.372,0,0,1-.372-.371h0a.373.373,0,0,1,.372-.372h6.282a.373.373,0,0,1,.372.372h0A.372.372,0,0,1,126.229,307.479Z" fill="#fffbce" style="mix-blend-mode: overlay;isolation: isolate"/>
            </g>
          </g>
        </g>
      </g>
      <g id="Group_20" data-name="Group 20">
        <path id="Path_247" data-name="Path 247" d="M137.73,163.033a27.429,27.429,0,1,0-47.862,0,36,36,0,1,0,47.862,0Z" fill="#00a07b"/>
        <path id="Path_248" data-name="Path 248" d="M131.1,179.288c-.728-1.446-3.035-.188-2.31,1.252,3.992,7.924-7.429,12.41-13.75,14.788V165.467c0-1.6-2.674-1.6-2.674,0v13.309c-8.289,3.083-12.542-5.942-12.834-12.061-.076-1.59-2.751-1.6-2.675,0,.208,4.361,1.324,9.042,4.9,12.137a11.586,11.586,0,0,0,10.61,2.551V274.16c0,1.6,2.674,1.6,2.674,0V197.989c4.855-1.822,10.287-3.564,13.853-7.294C131.927,187.523,133.073,183.2,131.1,179.288Z" fill="#0a1731"/>
      </g>
      <g id="Group_21" data-name="Group 21">
        <path id="Path_249" data-name="Path 249" d="M278.137,231.989a8.23,8.23,0,1,0-14.359,0,10.8,10.8,0,1,0,14.359,0Z" fill="#00a07b"/>
        <path id="Path_250" data-name="Path 250" d="M276.148,236.866c-.218-.434-.91-.056-.692.376,1.2,2.377-2.229,3.723-4.126,4.437V232.72a.4.4,0,0,0-.8,0v3.993c-2.487.925-3.763-1.783-3.851-3.619-.023-.477-.825-.48-.8,0a4.969,4.969,0,0,0,1.469,3.642,3.48,3.48,0,0,0,3.184.765V265.33c0,.479.8.48.8,0V242.477a10.826,10.826,0,0,0,4.156-2.188A2.955,2.955,0,0,0,276.148,236.866Z" fill="#0a1731"/>
      </g>
      <g id="Group_22" data-name="Group 22">
        <path id="Path_251" data-name="Path 251" d="M383.26,239.288a6.309,6.309,0,1,0-11.009,0,8.281,8.281,0,1,0,11.009,0Z" fill="#00a07b"/>
        <path id="Path_252" data-name="Path 252" d="M381.735,243.026c-.168-.332-.7-.042-.531.289.918,1.822-1.709,2.854-3.163,3.4v-6.868a.309.309,0,0,0-.615,0v3.061c-1.906.709-2.885-1.367-2.952-2.774-.017-.366-.633-.368-.615,0a3.8,3.8,0,0,0,1.127,2.791,2.665,2.665,0,0,0,2.44.587v21.335c0,.367.615.368.615,0v-17.52a8.3,8.3,0,0,0,3.186-1.678A2.264,2.264,0,0,0,381.735,243.026Z" fill="#0a1731"/>
      </g>
      <g id="Group_27" data-name="Group 27">
        <rect id="Rectangle_869" data-name="Rectangle 869" width="48.375" height="40.084" transform="translate(172.795 225.008)" fill="#e5ce6e"/>
        <path id="Path_253" data-name="Path 253" d="M170.26,225.008,158,202.328l-14.283,22.68v40.084h29.936V225.008Z" fill="#fef2b2"/>
        <g id="Group_23" data-name="Group 23">
          <path id="Path_254" data-name="Path 254" d="M224.6,227.845l-53.186.183L158,202.328l46.713.893Z" fill="#404a68"/>
          <path id="Path_255" data-name="Path 255" d="M172.618,210.47l-8.068-.1L161.4,204.5l7.811.135Z" fill="#e6e7e8"/>
          <path id="Path_256" data-name="Path 256" d="M181.9,210.583l-7.935-.1-3.448-5.83,7.687.133Z" fill="#e6e7e8"/>
          <path id="Path_257" data-name="Path 257" d="M191.038,210.694l-7.805-.095-3.737-5.788,7.565.131Z" fill="#e6e7e8"/>
          <path id="Path_258" data-name="Path 258" d="M200.025,210.8l-7.679-.093-4.017-5.746,7.447.128Z" fill="#e6e7e8"/>
          <path id="Path_259" data-name="Path 259" d="M208.866,210.91l-7.555-.092-4.287-5.7,7.331.127Z" fill="#e6e7e8"/>
          <path id="Path_260" data-name="Path 260" d="M177.03,218.032l-8.4-.046-3.433-6.4,8.12.09Z" fill="#e6e7e8"/>
          <path id="Path_261" data-name="Path 261" d="M186.69,218.085l-8.254-.045-3.757-6.353,7.986.089Z" fill="#e6e7e8"/>
          <path id="Path_262" data-name="Path 262" d="M196.185,218.137l-8.113-.044L184,211.79l7.854.087Z" fill="#e6e7e8"/>
          <path id="Path_263" data-name="Path 263" d="M205.519,218.187l-7.976-.043-4.371-6.252,7.726.086Z" fill="#e6e7e8"/>
          <path id="Path_264" data-name="Path 264" d="M214.7,218.237l-7.842-.043-4.662-6.2,7.6.084Z" fill="#e6e7e8"/>
          <path id="Path_265" data-name="Path 265" d="M181.855,226.3l-8.757.017-3.758-7.011,8.455.036Z" fill="#e6e7e8"/>
          <path id="Path_266" data-name="Path 266" d="M191.919,226.283l-8.6.017-4.109-6.949,8.309.036Z" fill="#e6e7e8"/>
          <path id="Path_267" data-name="Path 267" d="M201.8,226.264l-8.445.016-4.448-6.888,8.166.035Z" fill="#e6e7e8"/>
          <path id="Path_268" data-name="Path 268" d="M211.514,226.245l-8.3.016-4.773-6.828,8.027.034Z" fill="#e6e7e8"/>
          <path id="Path_269" data-name="Path 269" d="M221.053,226.226l-8.151.016-5.087-6.769,7.891.034Z" fill="#e6e7e8"/>
          <path id="Path_270" data-name="Path 270" d="M171.63,227.944,199.764,203.1l2.471.047-27.3,24.781Z" fill="#fff" opacity="0.65" style="mix-blend-mode: overlay;isolation: isolate"/>
          <path id="Path_271" data-name="Path 271" d="M177.442,228.074l26.319-24.893.951.04-25.746,24.848Z" fill="#fff" opacity="0.65" style="mix-blend-mode: overlay;isolation: isolate"/>
        </g>
        <rect id="Rectangle_870" data-name="Rectangle 870" width="46.83" height="8.1" transform="translate(174.132 226.783)" fill="#f86b07" opacity="0.14" style="mix-blend-mode: multiply;isolation: isolate"/>
        <g id="Group_24" data-name="Group 24">
          <rect id="Rectangle_871" data-name="Rectangle 871" width="17.279" height="27.546" transform="translate(178.533 231.878)" fill="#404a68" opacity="0.48"/>
          <rect id="Rectangle_872" data-name="Rectangle 872" width="6.511" height="24.04" transform="translate(180.036 233.38)" fill="#a0efed"/>
          <rect id="Rectangle_873" data-name="Rectangle 873" width="6.511" height="24.04" transform="translate(188.049 233.38)" fill="#a0efed"/>
        </g>
        <g id="Group_25" data-name="Group 25">
          <rect id="Rectangle_874" data-name="Rectangle 874" width="17.279" height="27.546" transform="translate(202.073 231.878)" fill="#404a68" opacity="0.48"/>
          <rect id="Rectangle_875" data-name="Rectangle 875" width="6.511" height="24.04" transform="translate(203.575 233.38)" fill="#a0efed"/>
          <rect id="Rectangle_876" data-name="Rectangle 876" width="6.511" height="24.04" transform="translate(211.589 233.38)" fill="#a0efed"/>
        </g>
        <path id="Path_272" data-name="Path 272" d="M226.6,265.981c0-.058.009-.114.009-.172a5.125,5.125,0,0,0-7.335-4.632,8.125,8.125,0,0,0-12.845.293,5.122,5.122,0,0,0-6.98,1.456,3.373,3.373,0,0,0-4.639,3.055Z" fill="#00a07b"/>
        <g id="Group_26" data-name="Group 26">
          <path id="Path_273" data-name="Path 273" d="M161.505,220.739c0,3.457-2.411,6.26-5.384,6.26s-5.384-2.8-5.384-6.26,2.41-6.261,5.384-6.261S161.505,217.281,161.505,220.739Z" fill="#404a68" opacity="0.48"/>
          <ellipse id="Ellipse_5" data-name="Ellipse 5" cx="4.514" cy="5.249" rx="4.514" ry="5.249" transform="translate(151.607 215.36)" fill="#a0efed"/>
          <path id="Path_274" data-name="Path 274" d="M152.44,224.08l6.114-8.065.781.65-6.114,8.195Z" fill="#fff" opacity="0.65" style="mix-blend-mode: overlay;isolation: isolate"/>
        </g>
      </g>
      <g id="Group_31" data-name="Group 31">
        <rect id="Rectangle_877" data-name="Rectangle 877" width="13.416" height="11.116" transform="translate(341.049 265.122) rotate(180)" fill="#f2537a"/>
        <path id="Path_275" data-name="Path 275" d="M341.752,254.006l3.4-6.29,3.961,6.29v11.117h-8.3V254.006Z" fill="#e57a99"/>
        <g id="Group_28" data-name="Group 28">
          <path id="Path_276" data-name="Path 276" d="M326.681,254.793l14.75.051,3.721-7.127-12.955.248Z" fill="#404a68"/>
          <path id="Path_277" data-name="Path 277" d="M341.1,249.974l2.237-.027.873-1.629-2.166.037Z" fill="#e6e7e8"/>
          <path id="Path_278" data-name="Path 278" d="M338.523,250.006l2.2-.027.956-1.617-2.132.037Z" fill="#e6e7e8"/>
          <path id="Path_279" data-name="Path 279" d="M335.99,250.036l2.165-.026,1.036-1.605-2.1.036Z" fill="#e6e7e8"/>
          <path id="Path_280" data-name="Path 280" d="M333.5,250.067l2.13-.026,1.114-1.593-2.065.036Z" fill="#e6e7e8"/>
          <path id="Path_281" data-name="Path 281" d="M331.046,250.1l2.1-.025,1.189-1.582-2.033.035Z" fill="#e6e7e8"/>
          <path id="Path_282" data-name="Path 282" d="M339.875,252.072l2.329-.013.952-1.776-2.252.025Z" fill="#e6e7e8"/>
          <path id="Path_283" data-name="Path 283" d="M337.2,252.086l2.289-.012,1.042-1.762-2.215.025Z" fill="#e6e7e8"/>
          <path id="Path_284" data-name="Path 284" d="M334.563,252.1l2.25-.012,1.129-1.748-2.178.024Z" fill="#e6e7e8"/>
          <path id="Path_285" data-name="Path 285" d="M331.974,252.115l2.212-.012,1.212-1.734-2.143.024Z" fill="#e6e7e8"/>
          <path id="Path_286" data-name="Path 286" d="M329.429,252.128l2.175-.012,1.293-1.72-2.108.023Z" fill="#e6e7e8"/>
          <path id="Path_287" data-name="Path 287" d="M338.537,254.365l2.428,0,1.042-1.944-2.345.01Z" fill="#e6e7e8"/>
          <path id="Path_288" data-name="Path 288" d="M335.745,254.36l2.385,0,1.14-1.927-2.3.01Z" fill="#e6e7e8"/>
          <path id="Path_289" data-name="Path 289" d="M333,254.354l2.342,0,1.233-1.91-2.265.01Z" fill="#e6e7e8"/>
          <path id="Path_290" data-name="Path 290" d="M330.311,254.349l2.3,0,1.324-1.894-2.226.009Z" fill="#e6e7e8"/>
          <path id="Path_291" data-name="Path 291" d="M327.666,254.344l2.26,0,1.411-1.877-2.188.009Z" fill="#e6e7e8"/>
          <path id="Path_292" data-name="Path 292" d="M341.372,254.82l-7.8-6.889-.685.013,7.572,6.872Z" fill="#fff" opacity="0.65" style="mix-blend-mode: overlay;isolation: isolate"/>
          <path id="Path_293" data-name="Path 293" d="M339.76,254.857l-7.3-6.9-.264.011,7.14,6.891Z" fill="#fff" opacity="0.65" style="mix-blend-mode: overlay;isolation: isolate"/>
        </g>
        <rect id="Rectangle_878" data-name="Rectangle 878" width="12.987" height="2.246" transform="translate(340.678 256.745) rotate(180)" fill="#f86b07" opacity="0.14" style="mix-blend-mode: multiply;isolation: isolate"/>
        <g id="Group_29" data-name="Group 29">
          <rect id="Rectangle_879" data-name="Rectangle 879" width="4.792" height="7.639" transform="translate(339.458 263.551) rotate(180)" fill="#404a68" opacity="0.48"/>
          <rect id="Rectangle_880" data-name="Rectangle 880" width="1.806" height="6.667" transform="translate(339.041 262.995) rotate(180)" fill="#a0efed"/>
          <rect id="Rectangle_881" data-name="Rectangle 881" width="1.806" height="6.667" transform="translate(336.819 262.995) rotate(180)" fill="#a0efed"/>
        </g>
        <g id="Group_30" data-name="Group 30">
          <rect id="Rectangle_882" data-name="Rectangle 882" width="4.792" height="7.639" transform="translate(332.93 263.551) rotate(180)" fill="#404a68" opacity="0.48"/>
          <rect id="Rectangle_883" data-name="Rectangle 883" width="1.806" height="6.667" transform="translate(332.513 262.995) rotate(180)" fill="#a0efed"/>
          <rect id="Rectangle_884" data-name="Rectangle 884" width="1.806" height="6.667" transform="translate(330.291 262.995) rotate(180)" fill="#a0efed"/>
        </g>
        <path id="Path_294" data-name="Path 294" d="M326.126,265.369c0-.016,0-.031,0-.047a1.421,1.421,0,0,1,2.034-1.285,2.252,2.252,0,0,1,3.562.081,1.421,1.421,0,0,1,1.936.4.925.925,0,0,1,.35-.069.937.937,0,0,1,.936.916Z" fill="#00a07b"/>
      </g>
      <g id="Group_36" data-name="Group 36">
        <g id="Group_33" data-name="Group 33">
          <path id="Path_295" data-name="Path 295" d="M237.59,264.8h-7.723l2.507-129.608h3.072Z" fill="#fff"/>
          <path id="Path_296" data-name="Path 296" d="M233.329,138.337s4.265-.167,4.432.334.418,3.345.083,3.68-5.184-.5-5.184-.5S232.577,138.5,233.329,138.337Z" fill="#b6c6c5"/>
          <g id="Group_32" data-name="Group 32">
            <path id="Path_297" data-name="Path 297" d="M262.642,162.457s-3.378-9.061-27.906-21.781c.5-5.288,2.193-25.421.166-35.052,0,0-5.695,7.711-3.044,34.91-4.551,2.805-21.607,13.552-28.067,20.959,0,0,9.516-.1,29.487-18.386C237.3,146.3,253.4,158.872,262.642,162.457Z" fill="#fff"/>
            <path id="Path_298" data-name="Path 298" d="M232.049,139.207a.738.738,0,0,0-.373.109v-.1c-1.255.03-2.261.725-2.261,1.584s1.006,1.554,2.261,1.583v-.1a.746.746,0,0,0,.373.108c.577,0,1.045-.711,1.045-1.588S232.626,139.207,232.049,139.207Z" fill="#b6c6c5"/>
          </g>
        </g>
        <g id="Group_35" data-name="Group 35">
          <path id="Path_299" data-name="Path 299" d="M313.028,265.159H309.4l1.178-60.893h1.443Z" fill="#fff"/>
          <path id="Path_300" data-name="Path 300" d="M311.026,205.743s2-.078,2.082.157a4.3,4.3,0,0,1,.04,1.729,11.659,11.659,0,0,1-2.436-.236S310.673,205.822,311.026,205.743Z" fill="#b6c6c5"/>
          <g id="Group_34" data-name="Group 34">
            <path id="Path_301" data-name="Path 301" d="M324.8,217.075s-1.587-4.257-13.111-10.233c.234-2.484,1.031-11.943.078-16.468,0,0-2.676,3.623-1.43,16.4-2.138,1.318-10.151,6.367-13.186,9.847,0,0,4.471-.044,13.853-8.638C312.891,209.487,320.457,215.391,324.8,217.075Z" fill="#fff"/>
            <path id="Path_302" data-name="Path 302" d="M310.425,206.152a.342.342,0,0,0-.175.051v-.048c-.59.013-1.063.34-1.063.743s.473.73,1.063.744v-.048a.352.352,0,0,0,.175.051c.271,0,.491-.334.491-.747S310.7,206.152,310.425,206.152Z" fill="#b6c6c5"/>
          </g>
        </g>
      </g>
      <g id="Group_37" data-name="Group 37">
        <path id="Path_303" data-name="Path 303" d="M359.579,111.83a8.308,8.308,0,0,0-13.044-7.842,11.35,11.35,0,0,0-20.294-.755,8.306,8.306,0,0,0-11.738,8.6Z" fill="#fff" opacity="0.54"/>
        <path id="Path_304" data-name="Path 304" d="M206.017,125.432a4.414,4.414,0,0,0-6.931-4.167,6.031,6.031,0,0,0-10.784-.4,4.413,4.413,0,0,0-6.237,4.568Z" fill="#fff" opacity="0.54"/>
        <path id="Path_305" data-name="Path 305" d="M344.464,129.034a4.415,4.415,0,0,0-6.932-4.167,6.03,6.03,0,0,0-10.783-.4,4.413,4.413,0,0,0-6.237,4.568Z" fill="#fff" opacity="0.54"/>
        <path id="Path_306" data-name="Path 306" d="M221.057,72.669a5.641,5.641,0,0,0-9.5-5.175,5.74,5.74,0,0,0-.522.611,7.888,7.888,0,0,0-10.086-3.97,12.629,12.629,0,0,0-22.975-.455,7.9,7.9,0,0,0-8.259,4.087c-.081-.092-.159-.185-.246-.273a5.64,5.64,0,0,0-9.5,5.175Z" fill="#fff" opacity="0.54"/>
        <path id="Path_307" data-name="Path 307" d="M408.057,141.669a5.641,5.641,0,0,0-9.5-5.175,5.737,5.737,0,0,0-.522.611,7.888,7.888,0,0,0-10.086-3.97,12.629,12.629,0,0,0-22.975-.455,7.9,7.9,0,0,0-8.259,4.087c-.081-.092-.159-.185-.246-.273a5.64,5.64,0,0,0-9.5,5.175Z" fill="#fff" opacity="0.54"/>
      </g>
      <g id="Group_38" data-name="Group 38">
        <path id="Path_308" data-name="Path 308" d="M436.605,207.7a13.765,13.765,0,0,0-13.766-13.765c-.245,0-.489.007-.731.019,0-.087.007-.173.007-.261a13.765,13.765,0,0,0-27.531,0c0,.088,0,.174.006.26a13.763,13.763,0,0,0-8.378,24.075,13.766,13.766,0,0,0,23.554,13.433,13.765,13.765,0,0,0,23.011-14.242A13.713,13.713,0,0,0,436.605,207.7Z" fill="#78cc7f"/>
        <path id="Path_309" data-name="Path 309" d="M417.923,217.6c-.365-.725-1.522-.094-1.158.628,2,3.973-3.726,6.223-6.9,7.415V210.674c0-.8-1.342-.8-1.342,0v6.674c-4.156,1.546-6.289-2.98-6.435-6.048-.038-.8-1.38-.8-1.341,0a8.3,8.3,0,0,0,2.456,6.086,5.81,5.81,0,0,0,5.32,1.279V265.18c0,.8,1.342.8,1.342,0v-38.2c2.434-.914,5.158-1.787,6.946-3.658A4.938,4.938,0,0,0,417.923,217.6Z" fill="#0a1731"/>
      </g>
      <g id="Group_39" data-name="Group 39">
        <path id="Path_310" data-name="Path 310" d="M95.357,250.581a3.65,3.65,0,0,0-3.65-3.65c-.065,0-.13,0-.194.005,0-.023,0-.046,0-.069a3.65,3.65,0,1,0-7.3,0c0,.023,0,.045,0,.069A3.649,3.649,0,0,0,82,253.319a3.65,3.65,0,0,0,6.246,3.562,3.65,3.65,0,0,0,6.1-3.777A3.635,3.635,0,0,0,95.357,250.581Z" fill="#78cc7f"/>
        <path id="Path_311" data-name="Path 311" d="M90.4,253.207c-.1-.192-.4-.025-.308.167.531,1.053-.987,1.65-1.828,1.966v-3.97a.178.178,0,0,0-.355,0v1.769c-1.1.41-1.668-.79-1.707-1.6-.01-.212-.366-.213-.356,0a2.2,2.2,0,0,0,.652,1.613,1.537,1.537,0,0,0,1.411.339v12.334c0,.212.355.213.355,0V255.694a4.8,4.8,0,0,0,1.842-.97A1.311,1.311,0,0,0,90.4,253.207Z" fill="#0a1731"/>
      </g>
      <g id="Group_40" data-name="Group 40">
        <path id="Path_312" data-name="Path 312" d="M301.543,251.14a3.65,3.65,0,0,0-3.65-3.65c-.065,0-.129,0-.193,0,0-.023,0-.046,0-.07a3.65,3.65,0,1,0-7.3,0c0,.024,0,.046,0,.069a3.649,3.649,0,0,0-2.221,6.384,3.65,3.65,0,0,0,6.245,3.562,3.65,3.65,0,0,0,6.1-3.776A3.638,3.638,0,0,0,301.543,251.14Z" fill="#78cc7f"/>
        <path id="Path_313" data-name="Path 313" d="M296.59,253.766c-.1-.192-.4-.025-.307.167.531,1.053-.988,1.65-1.828,1.966v-3.97a.179.179,0,0,0-.356,0V253.7c-1.1.41-1.668-.79-1.707-1.6-.01-.212-.365-.213-.355,0a2.2,2.2,0,0,0,.651,1.613,1.543,1.543,0,0,0,1.411.34v12.333c0,.212.356.213.356,0V256.253a4.809,4.809,0,0,0,1.842-.97A1.31,1.31,0,0,0,296.59,253.766Z" fill="#0a1731"/>
      </g>
      <g id="Group_47" data-name="Group 47">
        <g id="Group_41" data-name="Group 41">
          <path id="Path_314" data-name="Path 314" d="M396.025,281.8a.753.753,0,1,1,.069-1.062A.752.752,0,0,1,396.025,281.8Z" fill="#e5322c"/>
          <path id="Path_315" data-name="Path 315" d="M403.115,282.814a.753.753,0,1,1,.069-1.063A.752.752,0,0,1,403.115,282.814Z" fill="#e5322c"/>
          <path id="Path_316" data-name="Path 316" d="M398.786,283.06a.753.753,0,1,1,.068-1.063A.753.753,0,0,1,398.786,283.06Z" fill="#e5322c"/>
          <path id="Path_317" data-name="Path 317" d="M401.044,281.554a.753.753,0,1,1,.069-1.062A.752.752,0,0,1,401.044,281.554Z" fill="#e5322c"/>
        </g>
        <g id="Group_42" data-name="Group 42">
          <path id="Path_318" data-name="Path 318" d="M312.19,272.584a.908.908,0,1,1,.043-1.243A.881.881,0,0,1,312.19,272.584Z" fill="#f2537a"/>
          <path id="Path_319" data-name="Path 319" d="M320.475,274.012a.907.907,0,1,1,.043-1.243A.881.881,0,0,1,320.475,274.012Z" fill="#f2537a"/>
          <path id="Path_320" data-name="Path 320" d="M315.445,274.151a.907.907,0,1,1,.043-1.243A.88.88,0,0,1,315.445,274.151Z" fill="#f2537a"/>
          <path id="Path_321" data-name="Path 321" d="M318.021,272.464a.907.907,0,1,1,.043-1.244A.88.88,0,0,1,318.021,272.464Z" fill="#f2537a"/>
        </g>
        <g id="Group_43" data-name="Group 43">
          <path id="Path_322" data-name="Path 322" d="M94.176,287.315a.907.907,0,1,1,.043-1.243A.879.879,0,0,1,94.176,287.315Z" fill="#f2537a"/>
          <path id="Path_323" data-name="Path 323" d="M102.461,288.744a.907.907,0,1,1,.043-1.244A.88.88,0,0,1,102.461,288.744Z" fill="#f2537a"/>
          <path id="Path_324" data-name="Path 324" d="M97.432,288.882a.907.907,0,1,1,.043-1.243A.881.881,0,0,1,97.432,288.882Z" fill="#f2537a"/>
          <path id="Path_325" data-name="Path 325" d="M100.008,287.2a.908.908,0,1,1,.043-1.244A.882.882,0,0,1,100.008,287.2Z" fill="#f2537a"/>
        </g>
        <g id="Group_44" data-name="Group 44">
          <path id="Path_326" data-name="Path 326" d="M217.668,276.637a.9.9,0,1,1,.227-1.37A.991.991,0,0,1,217.668,276.637Z" fill="#fee871"/>
          <path id="Path_327" data-name="Path 327" d="M226.857,277.019a.9.9,0,1,1,.226-1.37A.993.993,0,0,1,226.857,277.019Z" fill="#fee871"/>
          <path id="Path_328" data-name="Path 328" d="M221.135,277.89a.9.9,0,1,1,.226-1.37A.993.993,0,0,1,221.135,277.89Z" fill="#fee871"/>
          <path id="Path_329" data-name="Path 329" d="M224.3,275.671a.9.9,0,1,1,.227-1.37A.992.992,0,0,1,224.3,275.671Z" fill="#fee871"/>
        </g>
        <g id="Group_45" data-name="Group 45">
          <path id="Path_330" data-name="Path 330" d="M326.371,281.22a.9.9,0,1,1,.226-1.369A.992.992,0,0,1,326.371,281.22Z" fill="#fee871"/>
          <path id="Path_331" data-name="Path 331" d="M335.559,281.6a.9.9,0,1,1,.227-1.37A.991.991,0,0,1,335.559,281.6Z" fill="#fee871"/>
          <path id="Path_332" data-name="Path 332" d="M329.838,282.473a.9.9,0,1,1,.226-1.369A.992.992,0,0,1,329.838,282.473Z" fill="#fee871"/>
          <path id="Path_333" data-name="Path 333" d="M333,280.255a.9.9,0,1,1,.227-1.37A.991.991,0,0,1,333,280.255Z" fill="#fee871"/>
        </g>
        <g id="Group_46" data-name="Group 46">
          <circle id="Ellipse_6" data-name="Ellipse 6" cx="0.856" cy="0.856" r="0.856" transform="translate(211.183 259.951)" fill="#e5322c"/>
          <circle id="Ellipse_7" data-name="Ellipse 7" cx="0.856" cy="0.856" r="0.856" transform="translate(213.465 262.233)" fill="#e5322c"/>
          <circle id="Ellipse_8" data-name="Ellipse 8" cx="0.856" cy="0.856" r="0.856" transform="translate(209.187 262.518)" fill="#e5322c"/>
        </g>
      </g>
      <g id="Group_48" data-name="Group 48">
        <path id="Path_334" data-name="Path 334" d="M196.665,283.19a4.261,4.261,0,0,0-6.691-4.022,5.82,5.82,0,0,0-10.407-.388,4.26,4.26,0,0,0-6.02,4.41Z" fill="#78cc7f"/>
        <path id="Path_335" data-name="Path 335" d="M317.545,295.826c0-.056.006-.111.006-.167,0-1.734-1.042-3.14-2.329-3.14a1.993,1.993,0,0,0-1.475.71,4.428,4.428,0,0,0-3.766-2.594,3.66,3.66,0,0,0-1.944.578,11.215,11.215,0,0,0-1.8-3.251c-2.574-3.189-6.269-3.7-9.2-1.634-.7-2.265-2.363-3.858-4.3-3.858s-3.6,1.6-4.3,3.869c-2.961-1.767-6.549-1.017-8.976,2.255a10.913,10.913,0,0,0-.946,1.536,3.515,3.515,0,0,0-.918-.123c-1.852,0-3.447,1.461-4.2,3.571a2.128,2.128,0,0,0-1.742-1.059c-1.286,0-2.329,1.406-2.329,3.14,0,.056,0,.111.006.167Z" fill="#78cc7f"/>
        <path id="Path_336" data-name="Path 336" d="M146.1,278.164c0-.056.009-.111.009-.167a3.139,3.139,0,0,0-5.129-2.43,6.25,6.25,0,0,0-7.7-2.016,10.883,10.883,0,0,0-14.822-4.885,6.28,6.28,0,0,0-11.593.011,10.866,10.866,0,0,0-13.375,3.791,6.265,6.265,0,0,0-6.9,3.448A3.136,3.136,0,0,0,81.106,278c0,.056,0,.111.008.167Z" fill="#78cc7f"/>
        <path id="Path_337" data-name="Path 337" d="M416.1,267.182A3.376,3.376,0,0,0,410.8,264a4.612,4.612,0,0,0-8.247-.307,3.375,3.375,0,0,0-4.77,3.493Z" fill="#78cc7f"/>
      </g>
    </g>
    <g id="Group_60" data-name="Group 60">
      <g id="Group_54" data-name="Group 54">
        <g id="Group_53" data-name="Group 53">
          <path id="Path_338" data-name="Path 338" d="M161.7,441.256s56.242,0,71.525,3.668c0,0,5.5,9.17-3.057,10.393S141.524,457.151,161.7,441.256Z" fill="#e5ce6e"/>
          <g id="Group_52" data-name="Group 52">
            <g id="Group_51" data-name="Group 51">
              <path id="Path_339" data-name="Path 339" d="M41.467,255.835c3.321-2.178,5.546-1.244,6.967.331-1.3-11.908,6.448-11.444,6.448-11.444,11.269,3.268,22.537,39.876,33.806,50.989s52.586,22.226,52.586,22.226c-21.463-21.572-17.707-41.183-10.2-54.911s11.268,18.957,57.416,41.184c20.887,10.06,34.189,32.709,42.493,54.49,0,0,11.876,41.73,9.173,99.832H165.294s44.122-65.6-53.677-99.832C85.573,348.4,60.541,337.272,58.1,332.319,53.272,322.514,34.492,260.411,41.467,255.835Z" fill="#e8b09e"/>
              <path id="Path_340" data-name="Path 340" d="M230.988,358.7c-8.3-21.781-21.606-44.43-42.493-54.49-46.148-22.227-49.9-54.912-57.416-41.184l-.045.084A67.615,67.615,0,0,0,145.089,283.9c7.476,7.423,16.184,13.44,24.765,19.491,8.088,5.7,16.742,11.25,23.489,18.559a72.555,72.555,0,0,1,14.609,24.555,103.241,103.241,0,0,1,3.8,56.754c-4.385,19.569-16.286,36.752-32.446,48.545a98.424,98.424,0,0,1-10.663,6.727h71.521C242.864,400.43,230.988,358.7,230.988,358.7Z" fill="#e8b09e" opacity="0.22" style="mix-blend-mode: multiply;isolation: isolate"/>
              <g id="Group_50" data-name="Group 50">
                <path id="Path_341" data-name="Path 341" d="M118.082,344.39a.514.514,0,0,1-.2-.042c-1.768-.779-43.373-19.1-49.183-23.684-5.895-4.653-20.145-61.941-20.749-64.378a.5.5,0,0,1,.97-.24c5.086,20.523,15.9,60.278,20.4,63.833,5.711,4.509,48.535,23.363,48.967,23.553a.5.5,0,0,1-.2.958Z" fill="#f8924a" opacity="0.46" style="mix-blend-mode: multiply;isolation: isolate"/>
              </g>
            </g>
            <path id="Path_342" data-name="Path 342" d="M136.4,262.211a5.091,5.091,0,0,0-2.54,7.2c2.356,5.2,11.854,11.431,14.4,5.5C148.254,274.912,140.21,260.941,136.4,262.211Z" fill="#e8e8e8" opacity="0.47"/>
            <path id="Path_343" data-name="Path 343" d="M50.455,247.393s-4.234,5.5,1.27,16.088C51.725,263.481,61.886,264.751,50.455,247.393Z" fill="#e8e8e8" opacity="0.47"/>
            <path id="Path_344" data-name="Path 344" d="M40.294,260.517s2.54-4.233,3.811,3.387c0,0,2.963,9.315-2.964,9.738C41.141,273.642,37.754,261.788,40.294,260.517Z" fill="#e8e8e8" opacity="0.47"/>
          </g>
          <path id="Path_345" data-name="Path 345" d="M246.671,500s3.668-44.683-6.724-46.517-89.253,2.445-78.25-12.227c0,0-26.9,3.057-23.23,44.627V500Z" fill="#fef2b2"/>
        </g>
      </g>
      <g id="Group_59" data-name="Group 59">
        <g id="Group_58" data-name="Group 58">
          <path id="Path_346" data-name="Path 346" d="M338.3,441.256s-56.242,0-71.525,3.668c0,0-5.5,9.17,3.057,10.393S358.476,457.151,338.3,441.256Z" fill="#e5ce6e"/>
          <g id="Group_57" data-name="Group 57">
            <g id="Group_56" data-name="Group 56">
              <path id="Path_347" data-name="Path 347" d="M458.533,255.835c-3.321-2.178-5.546-1.244-6.967.331,1.3-11.908-6.448-11.444-6.448-11.444-11.269,3.268-22.537,39.876-33.806,50.989s-52.586,22.226-52.586,22.226c21.463-21.572,17.707-41.183,10.195-54.911s-11.268,18.957-57.416,41.184c-20.887,10.06-34.189,32.709-42.493,54.49,0,0-11.876,41.73-9.173,99.832h74.867s-44.122-65.6,53.677-99.832c26.044-10.3,51.076-21.428,53.515-26.381C446.727,322.514,465.508,260.411,458.533,255.835Z" fill="#e8b09e"/>
              <path id="Path_348" data-name="Path 348" d="M269.012,358.7c8.3-21.781,21.606-44.43,42.493-54.49,46.148-22.227,49.9-54.912,57.416-41.184l.045.084A67.615,67.615,0,0,1,354.911,283.9c-7.476,7.423-16.184,13.44-24.765,19.491-8.088,5.7-16.742,11.25-23.49,18.559a72.569,72.569,0,0,0-14.608,24.555,103.232,103.232,0,0,0-3.8,56.754c4.385,19.569,16.286,36.752,32.446,48.545a98.426,98.426,0,0,0,10.663,6.727H259.839C257.136,400.43,269.012,358.7,269.012,358.7Z" fill="#e8b09e" opacity="0.22" style="mix-blend-mode: multiply;isolation: isolate"/>
              <g id="Group_55" data-name="Group 55">
                <path id="Path_349" data-name="Path 349" d="M381.918,344.39a.514.514,0,0,0,.2-.042c1.768-.779,43.373-19.1,49.183-23.684,5.895-4.653,20.145-61.941,20.749-64.378a.5.5,0,0,0-.971-.24c-5.086,20.523-15.894,60.278-20.4,63.833-5.711,4.509-48.535,23.363-48.967,23.553a.5.5,0,0,0,.2.958Z" fill="#f8924a" opacity="0.46" style="mix-blend-mode: multiply;isolation: isolate"/>
              </g>
            </g>
            <path id="Path_350" data-name="Path 350" d="M363.6,262.211a5.091,5.091,0,0,1,2.54,7.2c-2.356,5.2-11.854,11.431-14.395,5.5C351.746,274.912,359.79,260.941,363.6,262.211Z" fill="#e8e8e8" opacity="0.47"/>
            <path id="Path_351" data-name="Path 351" d="M449.545,247.393s4.233,5.5-1.27,16.088C448.275,263.481,438.114,264.751,449.545,247.393Z" fill="#e8e8e8" opacity="0.47"/>
            <path id="Path_352" data-name="Path 352" d="M459.706,260.517s-2.541-4.233-3.811,3.387c0,0-2.963,9.315,2.964,9.738C458.859,273.642,462.246,261.788,459.706,260.517Z" fill="#e8e8e8" opacity="0.47"/>
          </g>
          <path id="Path_353" data-name="Path 353" d="M253.329,500s-3.668-44.683,6.724-46.517,89.253,2.445,78.25-12.227c0,0,26.9,3.057,23.23,44.627V500Z" fill="#fef2b2"/>
        </g>
      </g>
    </g>
  </g>
</svg>
